<svg width="20" height="20" viewBox="0 0 20 20" fill="none" xmlns="http://www.w3.org/2000/svg">
    <path fill-rule="evenodd" clip-rule="evenodd" d="M9.99992 2.49998C5.85778 2.49998 2.49992 5.85784 2.49992 9.99998C2.49992 14.1421 5.85778 17.5 9.99992 17.5C14.1421 17.5 17.4999 14.1421 17.4999 9.99998C17.4999 5.85784 14.1421 2.49998 9.99992 2.49998ZM0.833252 9.99998C0.833252 4.93737 4.93731 0.833313 9.99992 0.833313C15.0625 0.833313 19.1666 4.93737 19.1666 9.99998C19.1666 15.0626 15.0625 19.1666 9.99992 19.1666C4.93731 19.1666 0.833252 15.0626 0.833252 9.99998Z" fill="#7100FF"/>
    <path fill-rule="evenodd" clip-rule="evenodd" d="M6.66661 10C6.66661 8.15906 8.159 6.66667 9.99994 6.66667C11.8409 6.66667 13.3333 8.15906 13.3333 10C13.3333 11.841 11.8409 13.3333 9.99994 13.3333C8.159 13.3333 6.66661 11.841 6.66661 10Z" fill="#7100FF"/>
</svg>
