<svg width="320" height="320" viewBox="0 0 320 320" fill="none" xmlns="http://www.w3.org/2000/svg">
    <rect width="320" height="320" rx="160" fill="#FFD400"/>
    <path d="M172.511 145.158C174.437 138.198 179.869 132.304 186.651 129.815" stroke="#3B3748" stroke-width="4" stroke-linecap="round" stroke-linejoin="round"/>
    <path d="M172 117.513C141.882 129.964 110.445 138.852 78.3146 144C76.8048 132.458 75.7592 120.319 80.0573 109.522C84.3554 98.7245 95.6685 89.9102 106.888 92.4358C116.407 94.5803 122.712 103.792 126.348 112.958C144.359 109.358 156.169 111.06 172 117.513Z" stroke="#3B3748" stroke-width="4" stroke-linecap="round" stroke-linejoin="round"/>
    <path d="M107 144C104.439 150.729 98.0649 155.813 91 156.763C92.4488 157.751 93.6566 159.059 94.5318 160.588C95.407 162.118 95.9267 163.829 96.0516 165.592C96.1498 167.356 95.8498 169.121 95.1745 170.751C94.4992 172.381 93.4662 173.834 92.1537 175" stroke="#3B3748" stroke-width="4" stroke-linecap="round" stroke-linejoin="round"/>
    <path d="M118.09 180C117.311 181.53 116.937 183.253 117.009 184.989C117.08 186.725 117.593 188.408 118.495 189.86C119.433 191.287 120.719 192.419 122.216 193.137C123.713 193.855 125.366 194.133 127 193.941" stroke="#3B3748" stroke-width="4" stroke-linecap="round" stroke-linejoin="round"/>
    <path d="M140.312 130C150.753 143.07 156.934 159.111 158 175.902L131 186" stroke="#3B3748" stroke-width="4" stroke-linecap="round" stroke-linejoin="round"/>
    <path d="M128 143L127 152" stroke="#3B3748" stroke-width="4" stroke-linecap="round" stroke-linejoin="round"/>
    <path d="M78 144.174C70.7451 141.388 61.7787 143.7 56.8844 149.624C51.9901 155.547 51.5622 164.593 55.878 170.925C47.466 166.609 35.9381 171.45 32.3422 180.04C28.7464 188.63 32.6864 199.232 40.4566 204.573C48.2268 209.913 58.9474 210.242 67.657 206.529" stroke="#3B3748" stroke-width="4" stroke-linecap="round" stroke-linejoin="round"/>
    <path d="M64 118L52 117" stroke="#3B3748" stroke-width="4" stroke-linecap="round" stroke-linejoin="round"/>
    <path d="M56 103L67 106" stroke="#3B3748" stroke-width="4" stroke-linecap="round" stroke-linejoin="round"/>
    <path d="M73 96L62 89" stroke="#3B3748" stroke-width="4" stroke-linecap="round" stroke-linejoin="round"/>
    <path d="M261.286 79.0864C260 74.5865 261.284 69.4445 264.532 66.0715C267.78 62.6986 272.874 61.2242 277.422 62.3373C280.552 63.1022 283.507 65.2003 284.563 68.2416C285.618 71.2828 284.239 75.1797 281.215 76.2904C278.938 77.1264 276.27 76.2549 274.549 74.5449C272.828 72.8349 271.945 70.4355 271.597 68.0368C270.761 62.2828 272.893 56.1708 277.132 52.1938C281.371 48.2168 287.6 46.4563 293.295 47.6432" stroke="#3B3748" stroke-width="4" stroke-linecap="round" stroke-linejoin="round"/>
    <path d="M210.219 112.485C207.6 102.078 208.968 90.6511 213.533 84.1969C215.899 80.8539 220.504 78.1866 224.497 79.372C226.925 80.0921 230.735 83.7376 231.129 89.0484C231.974 100.402 220.423 110.022 215.504 118.021C221.689 114.778 228.146 111.585 235.11 111.081C242.074 110.578 249.736 113.396 252.973 119.579C256.38 126.09 253.609 134.83 247.556 139.001C241.504 143.172 233.041 142.974 226.613 139.396C220.185 135.818 215.739 129.29 213.649 122.248C217.454 131.352 218.178 141.45 215.711 151.004C214.393 156.04 210.827 161.705 205.65 161.15C199.947 160.539 198.013 153.173 198.33 147.448C198.912 137.218 202.095 127.306 207.578 118.647C200.003 118.772 191.899 118.747 185.603 114.538C179.307 110.329 176.46 100.245 182.079 95.1593C187.02 90.6952 194.43 90.6735 199.974 95.4521C205.02 99.7985 209.05 105.925 210.213 112.481" stroke="#3B3748" stroke-width="4" stroke-linecap="round" stroke-linejoin="round"/>
    <path d="M217.639 134.991C226.074 148.877 231.055 164.708 232.533 180.873" stroke="#3B3748" stroke-width="4" stroke-linecap="round" stroke-linejoin="round"/>
    <path d="M232.539 177.284C241.767 153.755 261.77 134.699 285.726 126.614C273.997 147.89 254.832 167.604 232.539 177.284Z" stroke="#3B3748" stroke-width="4" stroke-linecap="round" stroke-linejoin="round"/>
    <path d="M230.603 195.128C228.046 198.348 225.151 201.515 223.188 203.881C228.196 200.416 237.934 184.918 242.548 187.501C251.099 192.96 208.824 253.249 154.856 251.239" stroke="#3B3748" stroke-width="4" stroke-linecap="round" stroke-linejoin="round"/>
    <path d="M135.435 216.229C184.85 224.385 217.933 170.635 225.061 179.608C227.619 182.537 217.92 193.189 212.419 198.74C220.332 192.988 231.705 178.836 235.013 182.272C237.95 184.625 234.714 189.947 230.602 195.128" stroke="#3B3748" stroke-width="4" stroke-linecap="round" stroke-linejoin="round"/>
</svg>
