<svg width="480" height="480" viewBox="0 0 480 480" fill="none" xmlns="http://www.w3.org/2000/svg">
    <circle cx="240" cy="240" r="240" fill="#FFD400"/>
    <path d="M257.461 153.58C260.082 144.109 267.474 136.088 276.704 132.7" stroke="#3B3748" stroke-width="4" stroke-linecap="round" stroke-linejoin="round"/>
    <path d="M256.5 116.099C215.602 133.1 172.915 145.236 129.285 152.265C127.235 136.505 125.815 119.931 131.651 105.189C137.488 90.4464 152.85 78.4116 168.085 81.8599C181.011 84.788 189.572 97.3659 194.509 109.88C218.966 104.965 235.003 107.29 256.5 116.099Z" stroke="#3B3748" stroke-width="4" stroke-linecap="round" stroke-linejoin="round"/>
    <path d="M168.5 152.265C164.978 161.381 156.214 168.269 146.5 169.557C148.492 170.895 150.153 172.667 151.356 174.739C152.56 176.812 153.274 179.13 153.446 181.518C153.581 183.909 153.169 186.299 152.24 188.508C151.311 190.716 149.891 192.685 148.086 194.265" stroke="#3B3748" stroke-width="4" stroke-linecap="round" stroke-linejoin="round"/>
    <path d="M183.917 200.265C182.904 202.45 182.419 204.913 182.511 207.392C182.604 209.871 183.271 212.276 184.443 214.351C185.664 216.389 187.335 218.006 189.281 219.032C191.227 220.058 193.376 220.455 195.5 220.18" stroke="#3B3748" stroke-width="4" stroke-linecap="round" stroke-linejoin="round"/>
    <path d="M213.916 132.265C227.837 150.237 236.079 172.292 237.5 195.38L201.5 209.265" stroke="#3B3748" stroke-width="4" stroke-linecap="round" stroke-linejoin="round"/>
    <path d="M197.5 150.265L195.5 163.265" stroke="#3B3748" stroke-width="4" stroke-linecap="round" stroke-linejoin="round"/>
    <path d="M128.5 151.866C118.621 148.067 106.411 151.22 99.7469 159.297C93.0823 167.375 92.4997 179.71 98.3764 188.344C86.9218 182.459 71.2242 189.06 66.3277 200.774C61.4312 212.487 66.7964 226.945 77.3771 234.228C87.9578 241.51 102.556 241.958 114.416 236.895" stroke="#3B3748" stroke-width="4" stroke-linecap="round" stroke-linejoin="round"/>
    <path d="M110.5 117.265L93.5 115.265" stroke="#3B3748" stroke-width="4" stroke-linecap="round" stroke-linejoin="round"/>
    <path d="M99.5 96.2649L114.5 100.265" stroke="#3B3748" stroke-width="4" stroke-linecap="round" stroke-linejoin="round"/>
    <path d="M122.5 86.2649L107.5 77.2649" stroke="#3B3748" stroke-width="4" stroke-linecap="round" stroke-linejoin="round"/>
    <path d="M378.272 63.6655C376.522 57.5418 378.269 50.5442 382.689 45.954C387.11 41.3639 394.042 39.3574 400.231 40.8722C404.491 41.9132 408.512 44.7685 409.948 48.9071C411.384 53.0458 409.508 58.349 405.392 59.8606C402.294 60.9982 398.663 59.8122 396.321 57.4851C393.979 55.158 392.777 51.8928 392.304 48.6285C391.166 40.798 394.068 32.4805 399.836 27.0684C405.605 21.6562 414.082 19.2603 421.831 20.8756" stroke="#3B3748" stroke-width="4" stroke-linecap="round" stroke-linejoin="round"/>
    <path d="M308.775 109.116C305.211 94.9544 307.072 79.4034 313.286 70.6203C316.506 66.0708 322.773 62.441 328.206 64.0541C331.51 65.0342 336.696 69.9952 337.232 77.2224C338.381 92.6736 322.661 105.765 315.968 116.65C324.385 112.237 333.172 107.891 342.649 107.206C352.126 106.521 362.553 110.356 366.958 118.771C371.594 127.631 367.823 139.526 359.586 145.201C351.35 150.877 339.834 150.607 331.086 145.738C322.338 140.869 316.287 131.986 313.443 122.402C318.621 134.792 319.607 148.534 316.25 161.535C314.455 168.389 309.603 176.098 302.558 175.342C294.796 174.512 292.165 164.488 292.596 156.697C293.388 142.775 297.72 129.286 305.181 117.503C294.873 117.673 283.844 117.638 275.276 111.91C266.709 106.182 262.834 92.4595 270.481 85.5385C277.204 79.4635 287.289 79.434 294.834 85.937C301.7 91.8519 307.185 100.189 308.767 109.112" stroke="#3B3748" stroke-width="4" stroke-linecap="round" stroke-linejoin="round"/>
    <path d="M318.874 139.744C330.352 158.641 337.131 180.185 339.142 202.183" stroke="#3B3748" stroke-width="4" stroke-linecap="round" stroke-linejoin="round"/>
    <path d="M339.152 197.299C351.709 165.28 378.93 139.347 411.531 128.344C395.57 157.298 369.489 184.126 339.152 197.299Z" stroke="#3B3748" stroke-width="4" stroke-linecap="round" stroke-linejoin="round"/>
    <path d="M336.516 221.583C333.036 225.964 329.096 230.274 326.426 233.494C333.241 228.778 346.493 207.688 352.771 211.202C364.408 218.632 306.878 300.677 233.435 297.942" stroke="#3B3748" stroke-width="4" stroke-linecap="round" stroke-linejoin="round"/>
    <path d="M207.005 250.299C274.252 261.397 319.274 188.251 328.974 200.462C332.455 204.448 319.255 218.943 311.769 226.497C322.537 218.67 338.015 199.411 342.517 204.087C346.514 207.29 342.11 214.531 336.514 221.582" stroke="#3B3748" stroke-width="4" stroke-linecap="round" stroke-linejoin="round"/>
</svg>