<svg width="543" height="480" viewBox="0 0 543 480" fill="none" xmlns="http://www.w3.org/2000/svg">
<circle cx="303" cy="240" r="240" fill="#FFD400"/>
<path d="M307.5 175C304.233 181.289 297.703 185.898 290.5 187" stroke="#3B3748" stroke-width="4" stroke-linecap="round" stroke-linejoin="round"/>
<path d="M103.5 78.2913C106.677 80.3138 110.237 81.6575 113.956 82.2384C117.675 82.8192 121.473 82.6246 125.114 81.6668C128.51 80.7524 131.926 78.9723 133.556 75.8497C135.347 72.4158 134.322 67.7328 131.204 65.4429C128.085 63.153 123.247 63.6355 120.708 66.5577C117.155 70.6434 118.88 77.1396 121.972 81.591C128.25 90.632 139.56 95.8986 150.5 94.8733" stroke="#3B3748" stroke-width="4" stroke-linecap="round" stroke-linejoin="round"/>
<path d="M345.501 226C261.23 239.145 185.371 215.932 186.182 235.234C188.206 242.756 209.379 244.258 223.413 246.355C205.65 246.568 178.275 240.109 177.817 249.817C176.899 260.929 207.289 260.429 221.442 263.843C210.381 264.23 173.462 253.898 172.533 265.529C170.297 285.085 280.743 300.198 359.5 284.424" stroke="#3B3748" stroke-width="4" stroke-linecap="round" stroke-linejoin="round"/>
<path d="M317.556 226C316.85 205.871 322.921 179.868 332.5 162" stroke="#3B3748" stroke-width="4" stroke-linecap="round" stroke-linejoin="round"/>
<path d="M346.5 175L345.5 187" stroke="#3B3748" stroke-width="4" stroke-linecap="round" stroke-linejoin="round"/>
<path d="M345.5 142.552C355.678 124.19 380.508 115.832 399.572 124.336C418.636 132.84 429.211 157.02 422.601 176.976C431.384 172.34 443.559 176.216 448.118 185.1C452.678 193.984 448.796 206.257 439.98 210.829C456.691 214.496 474.109 218.502 487.251 229.553C500.394 240.603 507.523 261.004 498.388 275.595C489.914 289.134 471.132 292.351 455.742 288.467C436.106 283.502 419.117 268.845 411.201 250.045" stroke="#3B3748" stroke-width="4" stroke-linecap="round" stroke-linejoin="round"/>
<path d="M373.5 157C376.903 170.736 388.056 182.17 401.5 185.705C395.436 188.811 390.936 194.916 389.696 201.722C388.456 208.528 390.501 215.877 395.065 221" stroke="#3B3748" stroke-width="4" stroke-linecap="round" stroke-linejoin="round"/>
<path d="M209.5 63L206.5 50" stroke="#3B3748" stroke-width="4" stroke-linecap="round" stroke-linejoin="round"/>
<path d="M222.5 50V62" stroke="#3B3748" stroke-width="4" stroke-linecap="round" stroke-linejoin="round"/>
<path d="M234.5 64L238.5 50" stroke="#3B3748" stroke-width="4" stroke-linecap="round" stroke-linejoin="round"/>
<path d="M246.5 227L249.5 202" stroke="#3B3748" stroke-width="4" stroke-linecap="round" stroke-linejoin="round"/>
<path d="M206.5 202L209.5 226" stroke="#3B3748" stroke-width="4" stroke-linecap="round" stroke-linejoin="round"/>
<path d="M244.5 95L238.2 146H206.025L199.5 95" stroke="#3B3748" stroke-width="4" stroke-linecap="round" stroke-linejoin="round"/>
<path d="M303.5 229V202" stroke="#3B3748" stroke-width="4" stroke-linecap="round" stroke-linejoin="round"/>
<path d="M265.5 202L267.5 228" stroke="#3B3748" stroke-width="4" stroke-linecap="round" stroke-linejoin="round"/>
<path d="M212.5 154L206.443 197H174.5V154" stroke="#3B3748" stroke-width="4" stroke-linecap="round" stroke-linejoin="round"/>
<path d="M184.5 246L188.5 206" stroke="#3B3748" stroke-width="4" stroke-linecap="round" stroke-linejoin="round"/>
<path d="M150.985 206L149.5 253H178.5" stroke="#3B3748" stroke-width="4" stroke-linecap="round" stroke-linejoin="round"/>
<path d="M270.23 152L271.5 197H240.109L233.5 152" stroke="#3B3748" stroke-width="4" stroke-linecap="round" stroke-linejoin="round"/>
<path d="M199.5 115L239.5 114" stroke="#3B3748" stroke-width="4" stroke-linecap="round" stroke-linejoin="round"/>
<path d="M174.5 170L207.5 175" stroke="#3B3748" stroke-width="4" stroke-linecap="round" stroke-linejoin="round"/>
<path d="M237.5 170L271.5 168" stroke="#3B3748" stroke-width="4" stroke-linecap="round" stroke-linejoin="round"/>
<path d="M150.5 215L187.5 218" stroke="#3B3748" stroke-width="4" stroke-linecap="round" stroke-linejoin="round"/>
<path d="M209.5 213L247.5 211" stroke="#3B3748" stroke-width="4" stroke-linecap="round" stroke-linejoin="round"/>
<path d="M268.5 218L302.5 213" stroke="#3B3748" stroke-width="4" stroke-linecap="round" stroke-linejoin="round"/>
</svg>

