<svg width="320" height="320" viewBox="0 0 320 320" fill="none" xmlns="http://www.w3.org/2000/svg">
    <rect width="320" height="320" rx="160" fill="#FFD400"/>
    <path d="M151 163C148.502 167.717 143.508 171.173 138 172" stroke="#3B3748" stroke-width="4" stroke-linecap="round" stroke-linejoin="round"/>
    <path d="M3 93.1422C5.29853 94.5776 7.87342 95.5312 10.5637 95.9434C13.254 96.3555 16.0018 96.2175 18.6354 95.5378C21.0922 94.8888 23.5631 93.6255 24.7424 91.4094C26.0382 88.9725 25.297 85.6491 23.0409 84.024C20.7848 82.3989 17.2848 82.7413 15.4485 84.8151C12.8779 87.7146 14.126 92.3249 16.3625 95.4839C20.9041 101.9 29.0861 105.638 37 104.91" stroke="#3B3748" stroke-width="4" stroke-linecap="round" stroke-linejoin="round"/>
    <path d="M178.819 200C117.531 209.505 62.3605 192.72 62.9507 206.677C64.4227 212.116 79.8211 213.202 90.0278 214.718C77.1092 214.872 57.1998 210.202 56.8672 217.222C56.1991 225.256 78.301 224.895 88.5939 227.363C80.5501 227.643 53.6995 220.173 53.0243 228.583C51.398 242.723 131.722 253.651 189 242.245" stroke="#3B3748" stroke-width="4" stroke-linecap="round" stroke-linejoin="round"/>
    <path d="M158.041 200C157.523 185.532 161.976 166.843 169 154" stroke="#3B3748" stroke-width="4" stroke-linecap="round" stroke-linejoin="round"/>
    <path d="M179 163L178 172" stroke="#3B3748" stroke-width="4" stroke-linecap="round" stroke-linejoin="round"/>
    <path d="M178 139.558C185.391 126.303 203.42 120.269 217.263 126.408C231.105 132.547 238.784 150.003 233.984 164.409C240.362 161.062 249.202 163.86 252.513 170.273C255.824 176.686 253.005 185.547 246.603 188.847C258.737 191.494 271.385 194.386 280.928 202.363C290.47 210.341 295.647 225.068 289.014 235.601C282.861 245.375 269.223 247.697 258.049 244.894C243.791 241.309 231.455 230.728 225.707 217.157" stroke="#3B3748" stroke-width="4" stroke-linecap="round" stroke-linejoin="round"/>
    <path d="M198 150C200.552 159.873 208.917 168.091 219 170.632C214.452 172.864 211.077 177.252 210.147 182.144C209.217 187.036 210.75 192.318 214.174 196" stroke="#3B3748" stroke-width="4" stroke-linecap="round" stroke-linejoin="round"/>
    <path d="M79 82L77 72" stroke="#3B3748" stroke-width="4" stroke-linecap="round" stroke-linejoin="round"/>
    <path d="M89 72V81" stroke="#3B3748" stroke-width="4" stroke-linecap="round" stroke-linejoin="round"/>
    <path d="M98 83L101 72" stroke="#3B3748" stroke-width="4" stroke-linecap="round" stroke-linejoin="round"/>
    <path d="M106 201L108 183" stroke="#3B3748" stroke-width="4" stroke-linecap="round" stroke-linejoin="round"/>
    <path d="M77 183L79 200" stroke="#3B3748" stroke-width="4" stroke-linecap="round" stroke-linejoin="round"/>
    <path d="M104 105L99.66 142H77.495L73 105" stroke="#3B3748" stroke-width="4" stroke-linecap="round" stroke-linejoin="round"/>
    <path d="M148 203V183" stroke="#3B3748" stroke-width="4" stroke-linecap="round" stroke-linejoin="round"/>
    <path d="M120 183L122 202" stroke="#3B3748" stroke-width="4" stroke-linecap="round" stroke-linejoin="round"/>
    <path d="M82 147L77.5367 179H54V147" stroke="#3B3748" stroke-width="4" stroke-linecap="round" stroke-linejoin="round"/>
    <path d="M62 214L65 185" stroke="#3B3748" stroke-width="4" stroke-linecap="round" stroke-linejoin="round"/>
    <path d="M37.0756 185L36 220H57" stroke="#3B3748" stroke-width="4" stroke-linecap="round" stroke-linejoin="round"/>
    <path d="M123.098 146L124 179H101.696L97 146" stroke="#3B3748" stroke-width="4" stroke-linecap="round" stroke-linejoin="round"/>
    <path d="M73 119L102 118" stroke="#3B3748" stroke-width="4" stroke-linecap="round" stroke-linejoin="round"/>
    <path d="M54 159L78 163" stroke="#3B3748" stroke-width="4" stroke-linecap="round" stroke-linejoin="round"/>
    <path d="M100 159L124 158" stroke="#3B3748" stroke-width="4" stroke-linecap="round" stroke-linejoin="round"/>
    <path d="M37 192L64 194" stroke="#3B3748" stroke-width="4" stroke-linecap="round" stroke-linejoin="round"/>
    <path d="M79 191L107 189" stroke="#3B3748" stroke-width="4" stroke-linecap="round" stroke-linejoin="round"/>
    <path d="M123 194L147 191" stroke="#3B3748" stroke-width="4" stroke-linecap="round" stroke-linejoin="round"/>
</svg>
