<svg width="1352" height="697" viewBox="0 0 1352 697" fill="none" xmlns="http://www.w3.org/2000/svg">
<path d="M277.559 507.125C277.559 507.125 239.096 510.019 243.761 534.025C247.213 551.827 275.574 553.699 296.934 544.787" stroke="#00B998" stroke-width="6" stroke-linecap="round" stroke-linejoin="round"/>
<path d="M217.885 422.465C245.44 426.979 271.863 436.432 295.819 450.749L275.846 495.576" stroke="#00B998" stroke-width="6" stroke-linecap="round" stroke-linejoin="round"/>
<path d="M257.804 375.384C217.965 424.546 172.586 468.947 122.566 507.705C109.32 489.694 96.3141 470.241 93.6592 448.044C91.0044 425.847 102.136 400.41 123.609 394.161C141.817 388.853 161.087 398.454 175.759 410.474C203.142 387.54 224.847 379.349 257.796 375.379" stroke="#00B998" stroke-width="6" stroke-linecap="round" stroke-linejoin="round"/>
<path d="M162.077 502.481C163.384 509.304 164.496 516.367 163.003 523.151C161.51 529.935 156.819 536.44 150.093 538.146C142.716 540.006 134.91 535.595 130.473 529.404C126.037 523.212 124.263 515.583 122.582 508.16" stroke="#00B998" stroke-width="6" stroke-linecap="round" stroke-linejoin="round"/>
<path d="M151.779 527.3C159.29 534.754 168.597 542.818 179.017 540.969C186.509 539.631 192.209 533.331 195.745 526.579C201.559 515.412 203.124 502.516 200.151 490.283" stroke="#00B998" stroke-width="6" stroke-linecap="round" stroke-linejoin="round"/>
<path d="M149.871 549.477L129.346 577.279" stroke="#00B998" stroke-width="6" stroke-linecap="round" stroke-linejoin="round"/>
<path d="M210.467 471.533C213.048 470.672 215.398 469.231 217.336 467.321C219.274 465.411 220.749 463.082 221.648 460.514" stroke="#00B998" stroke-width="6" stroke-linecap="round" stroke-linejoin="round"/>
<path d="M321.675 519.715L269.962 532.169L327.531 457.097L341.864 472.731" stroke="#00B998" stroke-width="6" stroke-linecap="round" stroke-linejoin="round"/>
<path d="M405.851 577.937C416.027 558.429 422.714 535.884 417.871 514.429C413.028 492.975 396.55 479.928 371.923 474.586C363.522 472.763 326.134 469.084 326.504 480.202C326.752 487.68 358.116 493.756 363.502 494.882C368.888 496.008 375.57 497.308 381.772 498.66C367.71 495.677 329.633 485.985 323.457 495.993C318.267 510.113 361.489 512.957 374.724 516.012C362.691 514.973 322.927 505.456 321.205 517.785C318.902 529.569 356.493 534.861 371.003 534.726" stroke="#00B998" stroke-width="6" stroke-linecap="round" stroke-linejoin="round"/>
<path d="M1066.68 512.274C1057.17 539.169 1052.64 567.47 1053.68 595.977L1103.65 600.129" stroke="#F40934" stroke-width="6" stroke-linecap="round" stroke-linejoin="round"/>
<path d="M971.068 561.881C978.833 581.832 987.404 602.867 1004.64 615.57C1011.59 620.701 1021.5 624.101 1028.63 619.21C1032.99 616.212 1035.12 610.727 1035.34 605.438C1035.55 600.149 1034.15 594.939 1032.75 589.829C1029.48 577.895 1026.21 565.96 1022.94 554.022" stroke="#F40934" stroke-width="6" stroke-linecap="round" stroke-linejoin="round"/>
<path d="M980.637 582.369L1024.08 567.907" stroke="#F40934" stroke-width="6" stroke-linecap="round" stroke-linejoin="round"/>
<path d="M1023.42 622.943L1046.23 667.742" stroke="#F40934" stroke-width="6" stroke-linecap="round" stroke-linejoin="round"/>
<path d="M1012.38 684.815L1065.47 658.313" stroke="#F40934" stroke-width="6" stroke-linecap="round" stroke-linejoin="round"/>
<path d="M1111.62 615.066C1121.98 617.036 1133.3 612.78 1139.76 604.425C1146.22 596.071 1147.53 584.051 1143.01 574.513" stroke="#F40934" stroke-width="6" stroke-linecap="round" stroke-linejoin="round"/>
<path d="M1004.9 524.868C1068.51 513.371 1130.59 494.568 1189.89 468.835C1180.28 448.116 1169.26 426.904 1150.68 413.61C1132.11 400.315 1103.86 397.788 1087.72 413.932C1074.01 427.627 1073.14 449.604 1076.69 468.655C1042.69 481.896 1024.67 497.307 1004.91 524.867" stroke="#F40934" stroke-width="6" stroke-linecap="round" stroke-linejoin="round"/>
<path d="M1165.78 501.649C1171.25 506.188 1177.03 510.643 1183.83 512.641C1190.63 514.639 1198.77 513.649 1203.61 508.451C1208.9 502.761 1208.79 493.593 1205.43 486.589C1202.07 479.585 1196.1 474.229 1190.29 469.074" stroke="#F40934" stroke-width="6" stroke-linecap="round" stroke-linejoin="round"/>
<path d="M1193.07 504.628C1196.05 515.022 1198.69 527.319 1191.91 535.745C1187.03 541.812 1178.59 543.801 1170.8 543.658C1157.94 543.374 1145.62 538.434 1136.13 529.756" stroke="#F40934" stroke-width="6" stroke-linecap="round" stroke-linejoin="round"/>
<path d="M1096.04 523.834L1096.72 534.943" stroke="#F40934" stroke-width="6" stroke-linecap="round" stroke-linejoin="round"/>
<path d="M1180.23 567.875L1179.2 603.162" stroke="#F40934" stroke-width="6" stroke-linecap="round" stroke-linejoin="round"/>
<path d="M447.239 91.4617C454.624 119.499 453.113 149.138 442.916 176.28L392.708 172.72" stroke="#7100FF" stroke-width="6" stroke-linecap="round" stroke-linejoin="round"/>
<path d="M417.732 97.2021L413.822 111.794" stroke="#7100FF" stroke-width="6" stroke-linecap="round" stroke-linejoin="round"/>
<path d="M371.853 85.1092C366.52 77.7738 360.999 70.2551 353.292 65.4532C345.584 60.6512 335.106 59.1727 327.601 64.2698C319.883 69.5067 317.525 79.8762 317.721 89.2014C318.279 115.689 335.698 141.078 360.216 151.123" stroke="#7100FF" stroke-width="6" stroke-linecap="round" stroke-linejoin="round"/>
<path d="M347.73 87.9275C343.031 94.5395 342.643 103.941 346.78 110.92" stroke="#7100FF" stroke-width="6" stroke-linecap="round" stroke-linejoin="round"/>
<path d="M373.708 175.696C372.364 177.198 370.984 178.769 370.417 180.703C369.85 182.637 370.365 185.045 372.114 186.041C374.851 187.6 378.008 184.935 380.022 182.514C382.036 180.092 384.13 176.446 382.078 174.016C380.699 172.384 378.05 172.419 376.214 173.507C374.378 174.595 373.165 176.459 372.017 178.258" stroke="#7100FF" stroke-width="6" stroke-linecap="round" stroke-linejoin="round"/>
<path d="M400.344 47.6932C382.476 28.4225 353.165 20.6746 328.106 28.6003C320.402 31.0377 312.947 34.9647 307.733 41.1388C302.518 47.313 299.856 55.9814 302.189 63.7267C283.55 66.3795 267.695 82.5747 265.441 101.267C263.187 119.959 274.733 139.461 292.209 146.469C274.65 147.601 256.318 148.961 241.265 158.085C226.211 167.208 215.898 186.707 223.023 202.8C228.253 214.612 241.408 221.349 254.279 222.464C267.149 223.578 279.925 220.041 292.299 216.34" stroke="#7100FF" stroke-width="6" stroke-linecap="round" stroke-linejoin="round"/>
<path d="M294.294 15.6895L278.568 9.49292" stroke="#7100FF" stroke-width="6" stroke-linecap="round" stroke-linejoin="round"/>
<path d="M280.051 43.7237L262.019 38.8921" stroke="#7100FF" stroke-width="6" stroke-linecap="round" stroke-linejoin="round"/>
<path d="M260.838 72.1488L245.512 68.0422" stroke="#7100FF" stroke-width="6" stroke-linecap="round" stroke-linejoin="round"/>
<path d="M337.118 167.245C338.285 177.905 342.594 187.978 349.496 196.185" stroke="#7100FF" stroke-width="6" stroke-linecap="round" stroke-linejoin="round"/>
<path d="M1303.44 235.049L1308.25 237.593L1312.79 240C1318.26 231.055 1324.17 222.273 1329.63 213.325C1330.67 211.629 1333.11 208.776 1331.57 207.523C1329.87 206.145 1328.94 205.696 1327.91 205.013L1308.07 192C1302.77 206.073 1296.58 215.801 1287.6 225.406L1290.44 227.14L1277 220.1" stroke="#FFD400" stroke-width="6" stroke-linecap="round" stroke-linejoin="round"/>
<path d="M992 105.865C997.717 107.876 1002.16 107.269 1008.69 104C1008.15 116.047 1010.05 128.078 1014.29 139.368C1011.92 139.817 1015.41 139.39 1010.18 140C1015.7 139.349 1017.74 139.124 1023.26 138.47" stroke="#7100FF" stroke-width="6" stroke-linecap="round" stroke-linejoin="round"/>
<path d="M327 292.865C332.717 294.876 337.159 294.269 343.688 291C343.145 303.047 345.05 315.078 349.288 326.368C346.92 326.817 350.407 326.39 345.177 327C350.701 326.349 352.737 326.124 358.258 325.47" stroke="#7100FF" stroke-width="6" stroke-linecap="round" stroke-linejoin="round"/>
<path d="M547.257 44.8654C541.541 46.8763 537.099 46.2693 530.57 43C531.112 55.0465 529.208 67.078 524.97 78.3676C527.338 78.8166 523.851 78.3898 529.08 79C523.557 78.3487 521.52 78.1242 516 77.4697" stroke="#7100FF" stroke-width="6" stroke-linecap="round" stroke-linejoin="round"/>
<path d="M1311.72 544.313L1305.13 545.179L1298.89 546C1296.44 533.412 1293.41 520.828 1290.96 508.243C1290.5 505.855 1288.92 501.557 1291.22 500.765C1293.75 499.911 1295 499.791 1296.48 499.453L1324.77 493C1324.85 511.395 1327.78 525.179 1333.98 540.015L1329.99 540.792L1348.39 538.455" stroke="#7100FF" stroke-width="6" stroke-linecap="round" stroke-linejoin="round"/>
<path d="M93.7161 85.3127L87.1261 86.1786L80.8864 87C78.4383 74.4122 75.4106 61.8276 72.9625 49.243C72.4977 46.8553 70.9155 42.5574 73.2204 41.7647C75.7481 40.9115 77.0024 40.7906 78.4827 40.4531L106.772 34C106.855 52.3946 109.784 66.1795 115.979 81.0149L111.987 81.7917L130.391 79.455" stroke="#7100FF" stroke-width="6" stroke-linecap="round" stroke-linejoin="round"/>
<path d="M1006.33 355.783C1020.33 341.567 1028.01 321.325 1026.97 301.409C1026.31 288.862 1022.09 276.186 1013.44 267.105C1004.79 258.024 991.339 253.113 979.222 256.45C967.104 259.788 957.598 272.222 959.319 284.666C959.888 288.81 963.171 293.601 967.172 292.346C969.981 291.454 971.086 288.071 971.335 285.135C972.564 270.287 961.261 255.827 946.835 252.229C932.41 248.632 916.33 255.349 907.578 267.414" stroke="#F40934" stroke-width="6" stroke-miterlimit="10" stroke-linecap="round"/>
<path d="M58.2048 330.725C88.8201 322.274 115.522 300.488 129.927 272.203C139 254.383 143.278 233.555 138.581 214.154C133.884 194.753 119.253 177.28 99.8946 172.237" stroke="#FFD400" stroke-width="6" stroke-miterlimit="10" stroke-linecap="round"/>
<path d="M614.795 115.29C637.422 93.0022 669.639 80.7707 701.337 82.4378C721.307 83.4904 741.483 90.1995 755.936 103.968C770.39 117.736 778.206 139.144 772.895 158.43" stroke="#FFD400" stroke-width="6" stroke-miterlimit="10" stroke-linecap="round"/>
<path d="M581.742 426.677C579.219 430.939 575.617 434.469 571.295 436.915C566.57 439.591 561.339 441.266 555.932 441.836V461H544.564V441.836C539.156 441.271 533.924 439.595 529.201 436.915C524.879 434.469 521.277 430.939 518.754 426.677C516.2 422.289 514.904 417.289 515.006 412.221C514.909 407.143 516.205 402.134 518.754 397.734C521.286 393.479 524.886 389.951 529.201 387.495C533.934 384.843 539.162 383.179 544.564 382.605V363.565H555.932V382.605C561.334 383.179 566.562 384.843 571.295 387.495C575.61 389.951 579.21 393.479 581.742 397.734C584.278 402.14 585.573 407.144 585.49 412.221C585.576 417.288 584.281 422.283 581.742 426.677ZM531.444 424.904C534.978 428.314 539.548 430.464 544.441 431.017V393.363C539.551 393.927 534.984 396.075 531.444 399.476C529.839 401.172 528.594 403.171 527.781 405.355C526.968 407.539 526.605 409.864 526.712 412.19C526.599 414.517 526.96 416.843 527.774 419.027C528.587 421.212 529.835 423.211 531.444 424.904ZM568.837 424.904C570.436 423.211 571.678 421.216 572.491 419.038C573.304 416.86 573.67 414.542 573.569 412.221C573.669 409.895 573.302 407.573 572.49 405.39C571.677 403.207 570.436 401.207 568.837 399.506C565.284 396.105 560.707 393.958 555.809 393.394V430.925C560.699 430.397 565.278 428.281 568.837 424.904Z" fill="#3B3748"/>
<path d="M543.12 233H579.991V243.605H555.103V313.625H543.274L543.12 233Z" fill="#3B3748"/>
<path d="M580.389 275.054C579.567 271.267 579.529 267.353 580.278 263.551C581.026 259.749 582.544 256.139 584.74 252.939C586.937 249.739 589.765 247.018 593.052 244.94C596.34 242.863 600.018 241.473 603.863 240.855C619.994 238.043 632.776 247.609 635.633 263.777L636.34 267.78L592.003 275.544C594.522 285.232 602.388 291.069 612.128 289.358C620.762 287.86 624.91 282.756 627.184 275.238L636.555 278.661C635.369 284.043 632.528 288.924 628.426 292.626C624.324 296.328 619.164 298.668 613.664 299.321C598.332 302.011 583.461 292.506 580.389 275.054ZM623.681 260.69C621.223 252.163 613.634 248.465 605.246 249.932C601.304 250.655 597.726 252.687 595.097 255.697C592.468 258.706 590.944 262.514 590.774 266.497L623.681 260.69Z" fill="#3B3748"/>
<path d="M642.61 278.569H648.448C651.06 273.832 652.657 268.147 653.241 257.634L654.593 233H696.994V278.569H705.413V302.194H694.536V289.083H653.272V302.194H642.61V278.569ZM685.227 278.569V243.605H664.425L663.626 258.061C662.95 269.156 662.029 273.801 659.54 278.661L685.227 278.569Z" fill="#3B3748"/>
<path d="M580.513 314.847H592.312V336.699H618.459V314.847H630.288V370.96H618.459V346.877H592.312V370.96H580.513V314.847Z" fill="#3B3748"/>
<path d="M642.67 314.847H654.039V355.343L680.893 314.847H693.398V370.96H682.03V330.464L655.176 370.96H642.67V314.847Z" fill="#3B3748"/>
<path d="M746.462 358.461C744.711 368.363 735.186 374.598 719.946 371.939C706.058 369.494 699.421 360.753 701.172 350.85C701.556 348.665 702.393 346.583 703.63 344.738L712.848 349.658C712.303 350.514 711.937 351.47 711.773 352.47C710.82 357.91 715.798 361.639 721.636 362.678C729.471 364.054 734.356 361.12 735.278 356.016C736.2 350.912 732.513 347.488 725.231 346.205L720.53 345.38L722.158 336.211L726.644 336.975C733.465 338.197 737.06 335.477 737.828 331.26C738.596 327.042 735.77 323.894 729.502 322.794C723.233 321.693 718.502 323.741 717.887 327.072C717.766 327.863 717.766 328.666 717.887 329.456L707.471 330.954C707.114 329.137 707.114 327.269 707.471 325.453C709.007 316.742 718.041 311.333 731.376 313.686C745.356 316.131 750.487 323.68 749.012 332.024C748.571 334.902 747.187 337.555 745.077 339.571C742.966 341.588 740.245 342.856 737.337 343.179C743.697 346.358 747.722 351.431 746.462 358.461Z" fill="#3B3748"/>
<path d="M758.535 314.847H774.42L791.043 357.635L807.635 314.847H823.581V370.96H812.336V331.229L795.959 370.96H786.065L769.811 331.229V370.96H758.443L758.535 314.847Z" fill="#3B3748"/>
<path d="M592.065 417.08C591.239 413.29 591.199 409.373 591.947 405.567C592.696 401.762 594.216 398.148 596.416 394.947C598.616 391.746 601.45 389.025 604.743 386.95C608.036 384.875 611.72 383.49 615.57 382.88C631.67 380.068 644.452 389.634 647.341 405.802L648.047 409.806L603.71 417.569C606.23 427.227 614.065 433.095 623.805 431.383C632.439 429.886 636.617 424.782 638.86 417.263L648.232 420.686C647.037 426.064 644.193 430.94 640.093 434.641C635.992 438.342 630.838 440.685 625.341 441.347C610.009 444.036 595.138 434.47 592.065 417.08ZM635.357 402.715C632.93 394.188 625.341 390.49 616.922 391.957C612.941 392.661 609.324 394.702 606.673 397.739C604.023 400.776 602.5 404.625 602.358 408.644L635.357 402.715Z" fill="#3B3748"/>
<path d="M654.284 412.22C654.177 408.339 654.858 404.477 656.286 400.864C657.715 397.251 659.862 393.961 662.599 391.193C665.336 388.425 668.606 386.235 672.214 384.754C675.822 383.273 679.694 382.532 683.597 382.574C695.887 382.574 704.306 387.556 708.392 396.725L698.714 402.532C697.38 399.694 695.235 397.31 692.546 395.679C689.857 394.048 686.744 393.243 683.597 393.363C673.949 393.363 666.329 400.576 666.329 412.129C666.329 423.681 673.611 430.894 683.597 430.894C686.872 431.067 690.123 430.252 692.924 428.556C695.726 426.86 697.947 424.362 699.298 421.389L708.73 427.166C706.336 431.695 702.71 435.464 698.266 438.041C693.822 440.619 688.739 441.902 683.597 441.744C679.683 441.865 675.786 441.182 672.15 439.737C668.514 438.291 665.217 436.114 662.465 433.343C659.714 430.572 657.567 427.265 656.159 423.631C654.752 419.996 654.113 416.112 654.284 412.22Z" fill="#3B3748"/>
<path d="M729.534 394.677H711.897V384.194H759.061V394.708H741.455V440.307H729.626L729.534 394.677Z" fill="#3B3748"/>
<path d="M785.842 274.168H826.922C827.737 274.168 828.519 273.846 829.095 273.273C829.671 272.7 829.995 271.923 829.995 271.112C829.995 270.301 829.671 269.524 829.095 268.951C828.519 268.378 827.737 268.056 826.922 268.056H785.842C785.027 268.056 784.245 268.378 783.669 268.951C783.093 269.524 782.769 270.301 782.769 271.112C782.769 271.923 783.093 272.7 783.669 273.273C784.245 273.846 785.027 274.168 785.842 274.168Z" fill="#3B3748"/>
<path fill-rule="evenodd" clip-rule="evenodd" d="M710.988 269.195C710.988 254.287 722.723 242.077 737.682 240.665L738.39 242.567C730.804 247.926 725.891 256.582 725.891 266.338C725.891 279.959 735.475 291.447 748.524 294.785L748.537 296.815C746.006 297.498 743.339 297.862 740.586 297.862C724.269 297.862 710.988 285.057 710.988 269.195Z" fill="#3B3748"/>
<path fill-rule="evenodd" clip-rule="evenodd" d="M746.762 243.557L747.44 241.619C761.366 243.355 772.192 254.625 772.192 268.36C772.192 277.279 767.618 285.17 760.602 290.072L759.083 288.689C761.874 283.839 763.457 278.286 763.457 272.382C763.457 260.305 756.824 249.665 746.762 243.557Z" fill="#3B3748"/>
</svg>
