<svg width="360" height="720" viewBox="0 0 360 720" fill="none" xmlns="http://www.w3.org/2000/svg">
<g clip-path="url(#clip0_1_1908)">
<rect width="360" height="720" fill="#FCFAF7"/>
<g clip-path="url(#clip1_1_1908)">
<path d="M127.758 666.04H129.118L132.478 655H131.118L129.038 661.8H127.838L126.078 655H124.718L126.878 663H128.718L127.758 666.04ZM136.317 663.16C138.477 663.16 139.597 662.04 139.597 660.76C139.597 659.208 138.157 658.872 138.077 658.856V658.84C138.205 658.808 139.437 658.456 139.437 657.08C139.437 655.88 138.397 654.84 136.317 654.84C133.437 654.84 133.037 657.24 133.037 657.24H134.317C134.317 657.24 134.637 656.04 136.317 656.04C137.597 656.04 138.157 656.6 138.157 657.16C138.157 657.8 137.677 658.28 136.397 658.28H135.437V659.48H136.397C137.757 659.48 138.317 660.04 138.317 660.68C138.317 661.32 137.677 661.96 136.317 661.96C134.317 661.96 134.077 660.52 134.077 660.52H132.797C132.797 660.52 133.117 663.16 136.317 663.16ZM141.362 663H142.642V659.48H147.122V663H148.402V655H147.122V658.28H142.642V655H141.362V663ZM154.003 663.16C156.083 663.16 156.867 661.736 156.867 661.72H156.883V663H158.163V655H156.883V656.296H156.867C156.867 656.28 156.083 654.84 154.003 654.84C151.923 654.84 150.163 656.6 150.163 659C150.163 661.4 151.923 663.16 154.003 663.16ZM154.163 661.96C152.643 661.96 151.443 660.76 151.443 659C151.443 657.24 152.643 656.04 154.163 656.04C155.683 656.04 156.883 657.24 156.883 659C156.883 660.76 155.683 661.96 154.163 661.96ZM162.169 663H163.449V656.2H166.249V655H159.369V656.2H162.169V663ZM167.456 663H170.976C172.816 663 174.016 661.8 174.016 660.36C174.016 658.92 172.816 657.72 170.976 657.72H168.736V655H167.456V663ZM168.736 661.8V658.92H170.976C172.096 658.92 172.736 659.56 172.736 660.36C172.736 661.16 172.096 661.8 170.976 661.8H168.736ZM183.458 663.16C185.778 663.16 187.378 661.56 187.378 659.4C187.378 657.24 185.778 655.64 183.618 655.64C181.618 655.64 180.834 656.92 180.834 656.92H180.818C181.138 654.28 182.258 653.16 184.818 653.16H186.738V651.8H184.818C181.458 651.8 179.538 653.72 179.538 658.68C179.538 661.56 181.138 663.16 183.458 663.16ZM183.458 661.96C181.938 661.96 180.818 660.84 180.818 659.4C180.818 657.96 181.938 656.84 183.458 656.84C184.978 656.84 186.098 657.96 186.098 659.4C186.098 660.84 184.978 661.96 183.458 661.96ZM192.652 663.16C195.052 663.16 196.812 661.4 196.812 659C196.812 656.6 195.052 654.84 192.652 654.84C190.252 654.84 188.492 656.6 188.492 659C188.492 661.4 190.252 663.16 192.652 663.16ZM192.652 661.96C190.972 661.96 189.772 660.76 189.772 659C189.772 657.24 190.972 656.04 192.652 656.04C194.332 656.04 195.532 657.24 195.532 659C195.532 660.76 194.332 661.96 192.652 661.96ZM197.605 663H198.965L200.805 656.2H202.245L204.085 663H205.445L203.205 655H199.845L197.605 663ZM206.722 663H210.242C212.082 663 213.282 661.8 213.282 660.36C213.282 658.92 212.082 657.72 210.242 657.72H208.002V655H206.722V663ZM208.002 661.8V658.92H210.242C211.362 658.92 212.002 659.56 212.002 660.36C212.002 661.16 211.362 661.8 210.242 661.8H208.002ZM214.8 663H225.04V655H223.76V661.8H220.56V655H219.28V661.8H216.08V655H214.8V663ZM230.884 663.16C233.924 663.16 234.804 660.52 234.804 660.52H233.524C233.524 660.52 232.804 661.96 230.884 661.96C229.428 661.96 228.244 660.888 228.084 659.4H234.964V658.92C234.964 656.6 233.204 654.84 230.884 654.84C228.564 654.84 226.804 656.6 226.804 659C226.804 661.4 228.564 663.16 230.884 663.16ZM228.116 658.28C228.324 657.08 229.364 656.04 230.884 656.04C232.404 656.04 233.444 657.08 233.604 658.28H228.116Z" fill="#3B3748"/>
<g filter="url(#filter0_d_1_1908)">
<path d="M158 698C158 685.85 167.85 676 180 676C192.15 676 202 685.85 202 698C202 710.15 192.15 720 180 720C167.85 720 158 710.15 158 698Z" fill="#7100FF"/>
<g clip-path="url(#clip2_1_1908)">
<path d="M181.769 707.294L185.001 704.062C185.157 703.906 185.245 703.694 185.245 703.473C185.245 703.252 185.157 703.04 185.001 702.884C184.844 702.727 184.632 702.64 184.411 702.64C184.191 702.64 183.979 702.727 183.822 702.884L180.858 705.846L180.858 688.858C180.858 688.637 180.77 688.425 180.614 688.268C180.458 688.112 180.246 688.024 180.025 688.024C179.804 688.024 179.592 688.112 179.436 688.268C179.279 688.425 179.191 688.637 179.191 688.858L179.191 705.897L176.179 702.884C176.102 702.806 176.01 702.745 175.909 702.703C175.807 702.661 175.699 702.639 175.589 702.639C175.48 702.639 175.371 702.661 175.27 702.703C175.169 702.745 175.077 702.806 175 702.884C174.844 703.04 174.756 703.252 174.756 703.473C174.756 703.694 174.844 703.906 175 704.062L178.232 707.295C178.702 707.763 179.338 708.025 180.001 708.025C180.664 708.025 181.299 707.762 181.769 707.294Z" fill="white"/>
</g>
</g>
</g>
<path d="M176.207 163.752C176.207 163.752 149.152 165.788 152.434 182.674C154.862 195.195 174.81 196.512 189.835 190.244" stroke="#00B998" stroke-width="4" stroke-linecap="round" stroke-linejoin="round"/>
<path d="M134.233 104.204C153.615 107.378 172.201 114.028 189.051 124.098L175.003 155.63" stroke="#00B998" stroke-width="4" stroke-linecap="round" stroke-linejoin="round"/>
<path d="M162.311 71.0869C134.289 105.668 102.37 136.899 67.1865 164.16C57.8693 151.492 48.721 137.809 46.8537 122.196C44.9863 106.583 52.816 88.6899 67.9198 84.2946C80.7274 80.5611 94.2819 87.3145 104.602 95.7695C123.863 79.6374 139.13 73.8762 162.306 71.0837" stroke="#00B998" stroke-width="4" stroke-linecap="round" stroke-linejoin="round"/>
<path d="M94.9783 160.486C95.8972 165.286 96.6797 170.254 95.6295 175.025C94.5792 179.797 91.2796 184.373 86.5488 185.572C81.3596 186.881 75.869 183.778 72.7484 179.423C69.6277 175.068 68.3803 169.702 67.1975 164.48" stroke="#00B998" stroke-width="4" stroke-linecap="round" stroke-linejoin="round"/>
<path d="M87.7344 177.943C93.0172 183.186 99.5639 188.858 106.893 187.558C112.163 186.617 116.172 182.185 118.659 177.436C122.749 169.582 123.85 160.511 121.758 151.906" stroke="#00B998" stroke-width="4" stroke-linecap="round" stroke-linejoin="round"/>
<path d="M86.3923 193.543L71.9552 213.099" stroke="#00B998" stroke-width="4" stroke-linecap="round" stroke-linejoin="round"/>
<path d="M129.015 138.718C130.83 138.112 132.483 137.098 133.846 135.755C135.21 134.411 136.247 132.773 136.88 130.967" stroke="#00B998" stroke-width="4" stroke-linecap="round" stroke-linejoin="round"/>
<path d="M207.238 172.608L170.863 181.368L211.357 128.564L221.439 139.56" stroke="#00B998" stroke-width="4" stroke-linecap="round" stroke-linejoin="round"/>
<path d="M266.446 213.561C273.604 199.839 278.308 183.982 274.901 168.89C271.495 153.799 259.904 144.623 242.582 140.865C236.673 139.582 210.375 136.995 210.634 144.815C210.809 150.075 232.87 154.349 236.659 155.141C240.447 155.933 245.147 156.847 249.51 157.798C239.619 155.7 212.836 148.883 208.491 155.923C204.841 165.855 235.243 167.855 244.552 170.003C236.088 169.273 208.119 162.579 206.907 171.251C205.288 179.54 231.729 183.262 241.935 183.167" stroke="#00B998" stroke-width="4" stroke-linecap="round" stroke-linejoin="round"/>
<path d="M242.855 510.599C236.512 528.547 233.488 547.434 234.182 566.458L267.526 569.229" stroke="#F40934" stroke-width="4" stroke-linecap="round" stroke-linejoin="round"/>
<path d="M179.051 543.704C184.233 557.018 189.953 571.056 201.452 579.533C206.094 582.957 212.71 585.226 217.463 581.962C220.375 579.962 221.793 576.301 221.94 572.771C222.086 569.242 221.145 565.765 220.213 562.355C218.031 554.391 215.849 546.426 213.667 538.46" stroke="#F40934" stroke-width="4" stroke-linecap="round" stroke-linejoin="round"/>
<path d="M185.437 557.376L214.427 547.725" stroke="#F40934" stroke-width="4" stroke-linecap="round" stroke-linejoin="round"/>
<path d="M213.986 584.454L229.208 614.35" stroke="#F40934" stroke-width="4" stroke-linecap="round" stroke-linejoin="round"/>
<path d="M206.619 625.744L242.051 608.057" stroke="#F40934" stroke-width="4" stroke-linecap="round" stroke-linejoin="round"/>
<path d="M272.845 579.196C279.763 580.511 287.317 577.671 291.627 572.096C295.937 566.52 296.812 558.499 293.795 552.134" stroke="#F40934" stroke-width="4" stroke-linecap="round" stroke-linejoin="round"/>
<path d="M201.626 519.004C244.08 511.331 285.507 498.784 325.083 481.611C318.67 467.784 311.312 453.628 298.917 444.757C286.523 435.885 267.669 434.198 256.899 444.972C247.752 454.111 247.166 468.777 249.534 481.49C226.848 490.327 214.824 500.611 201.637 519.003" stroke="#F40934" stroke-width="4" stroke-linecap="round" stroke-linejoin="round"/>
<path d="M308.988 503.509C312.638 506.538 316.501 509.511 321.036 510.844C325.571 512.177 331.008 511.517 334.235 508.048C337.768 504.251 337.693 498.132 335.452 493.458C333.21 488.784 329.226 485.21 325.346 481.77" stroke="#F40934" stroke-width="4" stroke-linecap="round" stroke-linejoin="round"/>
<path d="M327.202 505.497C329.19 512.433 330.954 520.639 326.43 526.262C323.174 530.311 317.537 531.638 312.34 531.543C303.76 531.353 295.539 528.057 289.205 522.266" stroke="#F40934" stroke-width="4" stroke-linecap="round" stroke-linejoin="round"/>
<path d="M262.454 518.314L262.902 525.727" stroke="#F40934" stroke-width="4" stroke-linecap="round" stroke-linejoin="round"/>
<path d="M318.633 547.704L317.949 571.253" stroke="#F40934" stroke-width="4" stroke-linecap="round" stroke-linejoin="round"/>
<path d="M151.885 448.846C162.119 466.747 166.536 487.386 164.527 507.907L129.382 514.703" stroke="#7100FF" stroke-width="4" stroke-linecap="round" stroke-linejoin="round"/>
<path d="M132.672 458.221V468.964" stroke="#7100FF" stroke-width="4" stroke-linecap="round" stroke-linejoin="round"/>
<path d="M98.9301 458.358C93.9162 454.301 88.7402 450.152 82.5617 448.272C76.3832 446.392 68.9133 447.305 64.6959 452.188C60.3579 457.206 60.647 464.764 62.4978 471.133C67.7571 489.226 84.3959 503.461 103.087 505.848" stroke="#7100FF" stroke-width="4" stroke-linecap="round" stroke-linejoin="round"/>
<path d="M82.8786 464.734C80.8677 470.141 82.3317 476.671 86.4576 480.704" stroke="#7100FF" stroke-width="4" stroke-linecap="round" stroke-linejoin="round"/>
<path d="M116.878 520.245C116.232 521.524 115.573 522.857 115.539 524.29C115.506 525.723 116.302 527.282 117.687 527.644C119.854 528.212 121.533 525.799 122.471 523.766C123.408 521.732 124.176 518.841 122.319 517.55C121.071 516.682 119.257 517.194 118.197 518.28C117.136 519.365 116.646 520.869 116.188 522.316" stroke="#7100FF" stroke-width="4" stroke-linecap="round" stroke-linejoin="round"/>
<path d="M111.615 427.412C95.7939 417.463 74.2327 417.536 58.4777 427.593C53.6343 430.685 49.2361 434.755 46.7905 439.956C44.3449 445.157 44.1119 451.602 47.1398 456.493C34.8244 461.746 26.9138 475.789 28.8062 489.045C30.6986 502.3 42.2195 513.571 55.5143 515.169C43.6606 519.178 31.3183 523.487 22.6568 532.525C13.9953 541.563 10.4996 556.856 18.3562 566.599C24.1229 573.751 34.4003 575.957 43.4465 574.354C52.4927 572.75 60.6176 567.969 68.4369 563.149" stroke="#7100FF" stroke-width="4" stroke-linecap="round" stroke-linejoin="round"/>
<path d="M32.8737 424.948L20.9307 423.585" stroke="#7100FF" stroke-width="4" stroke-linecap="round" stroke-linejoin="round"/>
<path d="M28.2508 446.827H14.9748" stroke="#7100FF" stroke-width="4" stroke-linecap="round" stroke-linejoin="round"/>
<path d="M20.2839 469.89H9" stroke="#7100FF" stroke-width="4" stroke-linecap="round" stroke-linejoin="round"/>
<path d="M90.1874 521.175C92.9512 528.282 97.7647 534.409 104.017 538.776" stroke="#7100FF" stroke-width="4" stroke-linecap="round" stroke-linejoin="round"/>
<path d="M304.978 132.27L308.244 134L311.337 135.636C315.053 129.555 319.072 123.583 322.784 117.499C323.49 116.346 325.15 114.407 324.1 113.554C322.947 112.617 322.318 112.312 321.614 111.848L308.124 103C304.52 112.569 300.312 119.182 294.205 125.713L296.136 126.892L287 122.106" stroke="#7100FF" stroke-width="4" stroke-linecap="round" stroke-linejoin="round"/>
<path d="M333.956 258.251C330.124 259.599 327.145 259.192 322.768 257C323.132 265.076 321.855 273.143 319.014 280.712C320.602 281.013 318.263 280.727 321.77 281.136C318.066 280.699 316.701 280.549 313 280.11" stroke="#7100FF" stroke-width="4" stroke-linecap="round" stroke-linejoin="round"/>
<path d="M13.0008 340.251C16.8334 341.599 19.8117 341.192 24.1891 339C23.8251 347.076 25.1022 355.143 27.9432 362.712C26.3555 363.013 28.6936 362.727 25.1875 363.136C28.8907 362.699 30.2559 362.549 33.957 362.11" stroke="#7100FF" stroke-width="4" stroke-linecap="round" stroke-linejoin="round"/>
<path d="M204.46 457.167L200.072 457.743L195.917 458.29C194.287 449.909 192.271 441.529 190.641 433.15C190.331 431.56 189.278 428.698 190.813 428.17C192.496 427.602 193.331 427.521 194.317 427.297L213.153 423C213.208 435.248 215.158 444.427 219.283 454.305L216.625 454.822L228.88 453.266" stroke="#7100FF" stroke-width="4" stroke-linecap="round" stroke-linejoin="round"/>
<path d="M396.886 356.679C388.904 340.672 373.976 328.269 356.784 323.366C345.954 320.278 333.979 320.166 323.764 324.86C313.549 329.554 305.473 339.53 304.779 350.775C304.085 362.02 311.865 373.696 322.916 375.856C326.595 376.579 331.612 375.188 331.712 371.43C331.772 368.789 329.225 366.869 326.808 365.803C314.576 360.444 299.027 365.823 291.782 377.008C284.537 388.194 285.557 403.781 293.242 414.71" stroke="#FFD400" stroke-width="4" stroke-miterlimit="10" stroke-linecap="round"/>
<path d="M39.5247 314.875C51.25 297.333 55.218 274.786 50.181 254.308C47.0063 241.408 40.1146 229.078 29.3292 221.362C18.5439 213.645 3.60053 211.212 -8.32318 217.08" stroke="#FFD400" stroke-width="4" stroke-miterlimit="10" stroke-linecap="round"/>
<path d="M119.494 372.118C117.813 374.959 115.411 377.313 112.53 378.944C109.38 380.727 105.893 381.844 102.288 382.224V395H94.7091V382.224C91.1037 381.847 87.6162 380.73 84.4672 378.944C81.5859 377.313 79.1846 374.959 77.5027 372.118C75.8003 369.193 74.936 365.86 75.0037 362.48C74.9396 359.095 75.8035 355.756 77.5027 352.823C79.1907 349.986 81.5905 347.634 84.4672 345.997C87.6227 344.229 91.1078 343.119 94.7091 342.737V330.043H102.288V342.737C105.889 343.119 109.374 344.229 112.53 345.997C115.407 347.634 117.806 349.986 119.494 352.823C121.185 355.76 122.048 359.096 121.993 362.48C122.051 365.858 121.187 369.189 119.494 372.118ZM85.9625 370.936C88.3186 373.21 91.3655 374.643 94.6271 375.011V349.909C91.3677 350.285 88.323 351.717 85.9625 353.984C84.8929 355.115 84.0625 356.448 83.5207 357.904C82.9788 359.36 82.7364 360.909 82.808 362.46C82.7329 364.011 82.9736 365.562 83.5157 367.018C84.0577 368.475 84.89 369.807 85.9625 370.936ZM110.891 370.936C111.957 369.807 112.786 368.477 113.327 367.025C113.869 365.573 114.113 364.028 114.046 362.48C114.113 360.93 113.868 359.382 113.327 357.926C112.785 356.471 111.957 355.138 110.891 354.004C108.523 351.737 105.472 350.305 102.206 349.929V374.95C105.466 374.598 108.519 373.188 110.891 370.936Z" fill="#3B3748"/>
<path d="M93.7466 243H118.327V250.07H101.735V296.75H93.849L93.7466 243Z" fill="#3B3748"/>
<path d="M118.592 271.036C118.045 268.512 118.02 265.902 118.518 263.368C119.017 260.833 120.029 258.426 121.494 256.293C122.958 254.16 124.843 252.345 127.035 250.96C129.226 249.575 131.679 248.648 134.242 248.236C144.996 246.362 153.517 252.739 155.422 263.518L155.893 266.187L126.335 271.362C128.015 277.821 133.259 281.713 139.752 280.572C145.508 279.573 148.273 276.171 149.789 271.159L156.037 273.441C155.246 277.028 153.352 280.282 150.617 282.751C147.882 285.219 144.443 286.779 140.776 287.214C130.555 289.007 120.641 282.671 118.592 271.036ZM147.454 261.46C145.815 255.775 140.756 253.31 135.164 254.288C132.536 254.77 130.151 256.125 128.398 258.131C126.645 260.137 125.629 262.676 125.516 265.331L147.454 261.46Z" fill="#3B3748"/>
<path d="M160.073 273.379H163.965C165.706 270.221 166.772 266.431 167.161 259.422L168.062 243H196.33V273.379H201.942V289.129H194.691V280.388H167.181V289.129H160.073V273.379ZM188.484 273.379V250.07H174.617L174.084 259.708C173.634 267.104 173.019 270.201 171.36 273.44L188.484 273.379Z" fill="#3B3748"/>
<path d="M118.675 297.565H126.541V312.133H143.973V297.565H151.859V334.973H143.973V318.918H126.541V334.973H118.675V297.565Z" fill="#3B3748"/>
<path d="M160.113 297.565H167.692V324.562L185.595 297.565H193.932V334.973H186.353V307.976L168.45 334.973H160.113V297.565Z" fill="#3B3748"/>
<path d="M229.308 326.64C228.14 333.242 221.79 337.398 211.631 335.626C202.372 333.996 197.947 328.169 199.115 321.567C199.37 320.11 199.929 318.722 200.754 317.492L206.899 320.772C206.535 321.343 206.291 321.98 206.182 322.647C205.547 326.274 208.865 328.759 212.757 329.452C217.981 330.369 221.237 328.413 221.852 325.01C222.467 321.608 220.008 319.326 215.154 318.47L212.02 317.92L213.105 311.807L216.096 312.317C220.643 313.132 223.04 311.318 223.552 308.506C224.064 305.695 222.18 303.596 218.001 302.862C213.822 302.129 210.668 303.494 210.258 305.715C210.178 306.242 210.178 306.778 210.258 307.304L203.314 308.303C203.076 307.092 203.076 305.846 203.314 304.635C204.338 298.828 210.361 295.222 219.251 296.791C228.571 298.421 231.991 303.453 231.008 309.016C230.714 310.934 229.792 312.703 228.384 314.048C226.977 315.392 225.164 316.237 223.224 316.453C227.465 318.572 230.148 321.954 229.308 326.64Z" fill="#3B3748"/>
<path d="M237.357 297.565H247.947L259.029 326.09L270.09 297.565H280.721V334.973H273.224V308.486L262.306 334.973H255.71L244.874 308.486V334.973H237.295L237.357 297.565Z" fill="#3B3748"/>
<path d="M126.377 365.72C125.826 363.193 125.799 360.582 126.298 358.045C126.797 355.508 127.811 353.099 129.277 350.965C130.744 348.83 132.633 347.016 134.829 345.633C137.024 344.25 139.48 343.327 142.047 342.92C152.78 341.045 161.302 347.423 163.227 358.201L163.698 360.871L134.14 366.046C135.82 372.484 141.043 376.396 147.536 375.255C153.292 374.257 156.078 370.854 157.573 365.842L163.821 368.124C163.025 371.709 161.129 374.96 158.395 377.427C155.662 379.895 152.225 381.457 148.561 381.898C138.339 383.691 128.425 377.313 126.377 365.72ZM155.238 356.143C153.62 350.459 148.561 347.993 142.948 348.971C140.294 349.441 137.883 350.801 136.116 352.826C134.348 354.851 133.333 357.417 133.239 360.096L155.238 356.143Z" fill="#3B3748"/>
<path d="M167.856 362.48C167.784 359.893 168.238 357.318 169.191 354.909C170.143 352.5 171.575 350.308 173.399 348.462C175.224 346.617 177.404 345.157 179.81 344.169C182.215 343.182 184.796 342.688 187.398 342.716C195.591 342.716 201.204 346.037 203.928 352.15L197.476 356.021C196.587 354.129 195.156 352.54 193.364 351.453C191.571 350.366 189.496 349.828 187.398 349.909C180.966 349.909 175.886 354.717 175.886 362.419C175.886 370.121 180.741 374.929 187.398 374.929C189.581 375.044 191.748 374.501 193.616 373.37C195.484 372.24 196.965 370.575 197.865 368.593L204.154 372.444C202.558 375.463 200.14 377.976 197.177 379.694C194.215 381.413 190.826 382.268 187.398 382.163C184.789 382.244 182.191 381.788 179.767 380.824C177.343 379.861 175.145 378.41 173.31 376.562C171.476 374.715 170.045 372.51 169.106 370.087C168.168 367.664 167.742 365.074 167.856 362.48Z" fill="#3B3748"/>
<path d="M218.022 350.785H206.265V343.796H237.707V350.805H225.97V381.205H218.084L218.022 350.785Z" fill="#3B3748"/>
<path d="M255.561 270.445H282.948C283.491 270.445 284.012 270.231 284.397 269.849C284.781 269.467 284.997 268.948 284.997 268.408C284.997 267.868 284.781 267.349 284.397 266.967C284.012 266.585 283.491 266.371 282.948 266.371H255.561C255.018 266.371 254.497 266.585 254.113 266.967C253.729 267.349 253.513 267.868 253.513 268.408C253.513 268.948 253.729 269.467 254.113 269.849C254.497 270.231 255.018 270.445 255.561 270.445Z" fill="#3B3748"/>
<path fill-rule="evenodd" clip-rule="evenodd" d="M205.659 267.13C205.659 257.191 213.482 249.051 223.454 248.11L223.927 249.378C218.869 252.951 215.594 258.722 215.594 265.226C215.594 274.306 221.983 281.965 230.683 284.19L230.691 285.544C229.004 285.998 227.226 286.241 225.391 286.241C214.513 286.241 205.659 277.704 205.659 267.13Z" fill="#3B3748"/>
<path fill-rule="evenodd" clip-rule="evenodd" d="M229.508 250.038L229.96 248.746C239.244 249.903 246.462 257.416 246.462 266.573C246.462 272.519 243.412 277.78 238.735 281.048L237.722 280.126C239.583 276.893 240.638 273.19 240.638 269.255C240.638 261.203 236.216 254.11 229.508 250.038Z" fill="#3B3748"/>
</g>
<defs>
<filter id="filter0_d_1_1908" x="146" y="668" width="68" height="68" filterUnits="userSpaceOnUse" color-interpolation-filters="sRGB">
<feFlood flood-opacity="0" result="BackgroundImageFix"/>
<feColorMatrix in="SourceAlpha" type="matrix" values="0 0 0 0 0 0 0 0 0 0 0 0 0 0 0 0 0 0 127 0" result="hardAlpha"/>
<feOffset dy="4"/>
<feGaussianBlur stdDeviation="6"/>
<feComposite in2="hardAlpha" operator="out"/>
<feColorMatrix type="matrix" values="0 0 0 0 0.231373 0 0 0 0 0.215686 0 0 0 0 0.282353 0 0 0 0.12 0"/>
<feBlend mode="normal" in2="BackgroundImageFix" result="effect1_dropShadow_1_1908"/>
<feBlend mode="normal" in="SourceGraphic" in2="effect1_dropShadow_1_1908" result="shape"/>
</filter>
<clipPath id="clip0_1_1908">
<rect width="360" height="720" fill="white"/>
</clipPath>
<clipPath id="clip1_1_1908">
<rect width="360" height="72" fill="white" transform="translate(0 648)"/>
</clipPath>
<clipPath id="clip2_1_1908">
<rect width="20" height="20" fill="white" transform="translate(170 688)"/>
</clipPath>
</defs>
</svg>
