<svg width="20" height="20" viewBox="0 0 20 20" fill="none" xmlns="http://www.w3.org/2000/svg">
<path d="M6.71271 2.79894C6.52524 2.98647 6.41992 3.24078 6.41992 3.50594C6.41992 3.7711 6.52524 4.02541 6.71271 4.21294L11.2987 8.79894C11.4812 8.98907 11.5831 9.2424 11.5831 9.50594C11.5831 9.76948 11.4812 10.0228 11.2987 10.2129L6.71271 14.7989C6.53055 14.9875 6.42976 15.2401 6.43203 15.5023C6.43431 15.7645 6.53948 16.0154 6.72489 16.2008C6.9103 16.3862 7.16111 16.4913 7.42331 16.4936C7.6855 16.4959 7.93811 16.3951 8.12671 16.2129L12.7127 11.6279C12.9913 11.3494 13.2124 11.0186 13.3632 10.6546C13.514 10.2906 13.5916 9.90045 13.5916 9.50644C13.5916 9.11243 13.514 8.72228 13.3632 8.35827C13.2124 7.99426 12.9913 7.66352 12.7127 7.38494L8.12671 2.79894C7.93918 2.61147 7.68487 2.50615 7.41971 2.50615C7.15454 2.50615 6.90024 2.61147 6.71271 2.79894V2.79894Z" fill="#3B3748"/>
</svg>
