<svg width="21" height="18" viewBox="0 0 21 18" fill="none" xmlns="http://www.w3.org/2000/svg">
  <path d="M14.5874 0C13.649 0.0145958 12.7311 0.276544 11.9263 0.759393C11.1216 1.24224 10.4585 1.92889 10.004 2.75C9.54957 1.92889 8.88648 1.24224 8.08173 0.759393C7.27698 0.276544 6.35908 0.0145958 5.4207 0C3.92482 0.0649923 2.51546 0.719378 1.50052 1.82019C0.485584 2.92101 -0.0524245 4.37877 0.00403425 5.875C0.00403425 9.66417 3.99237 13.8025 7.33737 16.6083C8.08422 17.2359 9.0285 17.58 10.004 17.58C10.9796 17.58 11.9239 17.2359 12.6707 16.6083C16.0157 13.8025 20.004 9.66417 20.004 5.875C20.0605 4.37877 19.5225 2.92101 18.5075 1.82019C17.4926 0.719378 16.0832 0.0649923 14.5874 0ZM11.5999 15.3333C11.1532 15.7095 10.588 15.9158 10.004 15.9158C9.42007 15.9158 8.85488 15.7095 8.4082 15.3333C4.12653 11.7408 1.6707 8.29417 1.6707 5.875C1.61373 4.8206 1.97601 3.78644 2.6785 2.99808C3.381 2.20972 4.36673 1.73113 5.4207 1.66667C6.47467 1.73113 7.4604 2.20972 8.1629 2.99808C8.86539 3.78644 9.22767 4.8206 9.1707 5.875C9.1707 6.09601 9.2585 6.30798 9.41478 6.46426C9.57106 6.62054 9.78302 6.70833 10.004 6.70833C10.225 6.70833 10.437 6.62054 10.5933 6.46426C10.7496 6.30798 10.8374 6.09601 10.8374 5.875C10.7804 4.8206 11.1427 3.78644 11.8452 2.99808C12.5477 2.20972 13.5334 1.73113 14.5874 1.66667C15.6413 1.73113 16.6271 2.20972 17.3296 2.99808C18.0321 3.78644 18.3943 4.8206 18.3374 5.875C18.3374 8.29417 15.8815 11.7408 11.5999 15.33V15.3333Z" fill="#3B3748"/>
</svg>
